<svg xmlns="http://www.w3.org/2000/svg" viewBox="0 0 191.88 198.052"><g data-name="Layer 2"><g data-name="ART"><path d="M2.622 82.568l90.759-30.884a9.85 9.85 0 016.813.172l89.275 35.505-97.98 37.805L2.023 83.153" fill="#357fc1"/><path d="M91.489 126.452a1.287 1.287 0 01-.547-.122L1.476 84.316a1.285 1.285 0 01-.002-2.325 1.281 1.281 0 01.734-.639l90.759-30.885a11.136 11.136 0 017.702.195l89.275 35.505a1.285 1.285 0 01-.012 2.394L91.95 126.366a1.28 1.28 0 01-.462.086zM4.982 83.122l86.556 40.648 94.408-36.427L99.72 53.05a8.57 8.57 0 00-5.925-.15z" fill="#3e4147"/><path d="M160.877 121.657c.401-2.808 16.846-48.933 16.846-48.933l-24.066-32.087s-47.729-1.203-60.564 32.89l26.472 60.564z" fill="#fdbe2a"/><path d="M119.565 134.947a.856.856 0 01-.785-.514L92.308 73.87a.856.856 0 01-.017-.645c12.9-34.266 60.91-33.467 61.388-33.444a.857.857 0 01.664.343L178.41 72.21a.857.857 0 01.121.802c-4.566 12.807-16.486 46.532-16.805 48.766a.857.857 0 01-.6.699l-41.313 12.434a.867.867 0 01-.247.036zM94.018 73.504l26.027 59.547 40.11-12.072c1.49-5.626 14.907-43.338 16.607-48.11l-23.536-31.378h-.008c-4.69 0-47.19.89-59.2 32.013zm66.86 48.153z" fill="#3e4147"/><path d="M122.674 83.153a47.71 47.71 0 00-11.265-31.478 43.77 43.77 0 00-18.316 21.851l26.472 60.565 15.882-4.78c.324-41.067-12.773-46.158-12.773-46.158z" fill="#e8a91b"/><path d="M151.251 44.949s-13.938 50.537-15.843 70.09" fill="#fdbe2a"/><path d="M135.41 116.325q-.063 0-.126-.006a1.285 1.285 0 01-1.155-1.404c1.894-19.44 15.313-68.24 15.883-70.308a1.285 1.285 0 112.478.684c-.14.503-13.93 50.653-15.803 69.874a1.284 1.284 0 01-1.277 1.16z" fill="#3e4147"/><ellipse cx="155.713" cy="65.746" rx="4.512" ry="6.333" fill="#e8a91b"/><ellipse cx="162.08" cy="85.159" rx="5.74" ry="8.267" fill="#e8a91b"/><ellipse cx="149.095" cy="94.99" rx="3.961" ry="5.136" fill="#e8a91b"/><path d="M119.565 135.375a1.286 1.286 0 01-1.178-.77L91.916 74.041a1.284 1.284 0 01-.026-.967c13.007-34.548 61.316-33.728 61.8-33.721a1.284 1.284 0 01.995.513l24.066 32.087a1.287 1.287 0 01.182 1.203c-6.587 18.477-16.494 46.69-16.784 48.682a1.29 1.29 0 01-.902 1.05l-41.312 12.433a1.278 1.278 0 01-.37.054zm-25.083-61.88l25.804 59.037 39.52-11.895c1.764-6.335 14.119-41.08 16.475-47.694l-23.268-31.024c-5.528.028-46.695 1.276-58.531 31.576zm66.395 48.162z" fill="#3e4147"/><ellipse cx="85.026" cy="76.892" rx="23.865" ry="24.567" fill="#cedd3e"/><path d="M85.026 102.744c-13.867 0-25.15-11.597-25.15-25.852s11.283-25.851 25.15-25.851 25.15 11.596 25.15 25.851-11.282 25.852-25.15 25.852zm0-49.133c-12.45 0-22.58 10.444-22.58 23.281s10.13 23.281 22.58 23.281 22.58-10.444 22.58-23.28-10.13-23.282-22.58-23.282z" fill="#3e4147"/><path d="M96.426 68.546c-8.788 0-9.66-7.14-9.669-7.216a1.285 1.285 0 012.555-.282c.071.572.898 5.465 8.294 4.88a1.285 1.285 0 11.2 2.563q-.72.055-1.38.055z" fill="#3e4147"/><ellipse cx="100.914" cy="107.719" rx="23.865" ry="24.567" fill="#f3783c"/><path d="M100.914 133.57c-13.867 0-25.15-11.596-25.15-25.85s11.283-25.852 25.15-25.852 25.15 11.596 25.15 25.851-11.282 25.852-25.15 25.852zm0-49.132c-12.45 0-22.58 10.444-22.58 23.281S88.465 131 100.915 131s22.58-10.444 22.58-23.28-10.129-23.282-22.58-23.282z" fill="#3e4147"/><path d="M100.864 100.08c-3.672 0-6.55-2.235-6.55-5.09s2.878-5.09 6.55-5.09c3.673 0 6.55 2.236 6.55 5.09s-2.877 5.09-6.55 5.09zm0-7.609c-2.157 0-3.979 1.153-3.979 2.52s1.822 2.52 3.98 2.52c2.156 0 3.979-1.154 3.979-2.52s-1.823-2.52-3.98-2.52z" fill="#3e4147"/><path d="M88.035 132.079L73.753 80.943 53.235 60.2l-5.134-20.195a65.898 65.898 0 00-30.4 10.414l5.767 18.755-4.243 26.014 14.17 56.002s51.64 9.01 54.64-19.111z" fill="#eff6fb"/><path d="M51.047 153.85a114.521 114.521 0 01-17.872-1.394 1.283 1.283 0 01-1.025-.95L17.98 95.502a1.282 1.282 0 01-.023-.522l4.194-25.717-5.678-18.468a1.286 1.286 0 01.518-1.448 66.554 66.554 0 0131.057-10.627 1.296 1.296 0 011.299.968l5.047 19.856L74.666 80.04a1.283 1.283 0 01.325.558l14.282 51.136a1.296 1.296 0 01.04.482 19.808 19.808 0 01-8.041 14.228c-6.479 4.883-16.564 7.375-29.975 7.406zm-16.614-3.798c5.05.757 32.156 4.242 45.294-5.664a17.301 17.301 0 007.003-12.205L72.605 81.61 52.322 61.104a1.283 1.283 0 01-.332-.587L47.122 41.37a65.915 65.915 0 00-27.907 9.597l5.481 17.83a1.283 1.283 0 01.04.585l-4.2 25.75z" fill="#3e4147"/><path d="M13.684 41.349l3.788 12.56c.737 2.444 8.642 2.222 17.655-.496s15.723-6.904 14.986-9.348l-3.788-12.56z" fill="#70b1de"/><path d="M22.54 56.891c-3.658 0-5.775-.877-6.298-2.611l-3.788-12.56a1.285 1.285 0 01.86-1.601l32.64-9.845a1.285 1.285 0 011.601.86l3.788 12.56c.555 1.84-.92 3.87-4.387 6.032a49.444 49.444 0 01-11.458 4.917 49.44 49.44 0 01-12.266 2.238c-.236.007-.467.01-.692.01zm-7.254-14.683l3.417 11.33c.358.934 6.253 1.6 16.053-1.356 9.802-2.955 14.345-6.77 14.126-7.746l-3.417-11.33z" fill="#3e4147"/><ellipse cx="30.004" cy="36.427" rx="17.046" ry="4.623" transform="rotate(-16.783 30.004 36.427)" fill="#85c3e9"/><path d="M18.752 44.33c-3.658 0-5.775-.876-6.298-2.61-.555-1.842.92-3.87 4.386-6.033A49.44 49.44 0 0128.3 30.77c12.059-3.635 18.435-2.36 19.256.363.555 1.841-.92 3.871-4.386 6.033a49.458 49.458 0 01-11.459 4.917 49.44 49.44 0 01-12.266 2.238q-.354.01-.692.01zm22.586-13.247A44.345 44.345 0 0029.04 33.23c-9.803 2.957-14.345 6.77-14.126 7.746.358.934 6.254 1.6 16.053-1.355 9.802-2.956 14.344-6.769 14.126-7.747-.163-.423-1.466-.793-3.756-.793z" fill="#3e4147"/><path d="M183.216 97.37L92.71 127.49a2.824 2.824 0 01-2.114-.107L9.288 92.862c-2.128-.98-4.445.863-4.256 3.385l7.771 58.688a3.38 3.38 0 001.763 2.779l75.57 38.739a2.828 2.828 0 002.312.13l86.6-33.618a3.34 3.34 0 002.058-2.932l6.1-59.194a3.16 3.16 0 00-3.99-3.47z" fill="#4495d7"/><path d="M91.44 198.052a4.144 4.144 0 01-1.89-.456l-75.57-38.74a4.678 4.678 0 01-2.458-3.825L3.758 96.416a4.796 4.796 0 011.964-4.352 4.115 4.115 0 014.104-.368L91.097 126.2a1.577 1.577 0 001.192.076l90.516-30.125a4.095 4.095 0 013.874.647 4.752 4.752 0 011.81 4.128l-6.105 59.239a4.606 4.606 0 01-2.877 4l-86.594 33.616a4.148 4.148 0 01-1.473.27zM8.086 93.884a1.582 1.582 0 00-.899.291 2.191 2.191 0 00-.874 1.976l7.765 58.615a2.145 2.145 0 001.075 1.804l75.569 38.74a1.546 1.546 0 001.269.072l86.593-33.615a2.055 2.055 0 001.24-1.821l6.104-59.239a2.17 2.17 0 00-.812-1.867 1.559 1.559 0 00-1.48-.256l-.014.005-90.508 30.122a4.11 4.11 0 01-3.058-.16L8.786 94.044a1.658 1.658 0 00-.7-.16zm175.13 3.486z" fill="#3e4147"/><path d="M93.458 157.295l91.29-32.603 2.458-23.853a3.16 3.16 0 00-3.99-3.47l-90.508 30.122a2.824 2.824 0 01-2.114-.107L9.288 92.863c-2.128-.98-4.445.862-4.256 3.384l3.02 22.803 79.585 37.948a7.592 7.592 0 005.821.297z" fill="#357fc1"/><path d="M91.488 192.53a1.285 1.285 0 01-1.283-1.229l-2.024-46.563a1.286 1.286 0 011.228-1.34 1.321 1.321 0 011.339 1.228l2.024 46.564a1.286 1.286 0 01-1.228 1.34h-.056z" fill="#3e4147"/><path d="M91.44 198.052a4.144 4.144 0 01-1.89-.456l-75.57-38.74a4.678 4.678 0 01-2.458-3.825L3.758 96.416a4.796 4.796 0 011.964-4.352 4.115 4.115 0 014.104-.368L91.097 126.2a1.577 1.577 0 001.192.076l90.516-30.125a4.095 4.095 0 013.874.647 4.752 4.752 0 011.81 4.128l-6.105 59.239a4.606 4.606 0 01-2.877 4l-86.594 33.616a4.148 4.148 0 01-1.473.27zM8.086 93.884a1.582 1.582 0 00-.899.291 2.191 2.191 0 00-.874 1.976l7.765 58.615a2.145 2.145 0 001.075 1.804l75.569 38.74a1.546 1.546 0 001.269.072l86.593-33.615a2.055 2.055 0 001.24-1.821l6.104-59.239a2.17 2.17 0 00-.812-1.867 1.559 1.559 0 00-1.48-.256l-.014.005-90.508 30.122a4.11 4.11 0 01-3.058-.16L8.786 94.044a1.658 1.658 0 00-.7-.16zm175.13 3.486z" fill="#3e4147"/><path d="M186.211 86.652l-95.75 30.122a3.372 3.372 0 01-2.317-.108L5.964 82.145a3.372 3.372 0 00-4.667 3.384l1.558 18.997a3.372 3.372 0 001.933 2.78l82.853 38.738a3.372 3.372 0 002.535.13l96.688-33.617a3.372 3.372 0 002.255-2.932l1.467-19.503a3.372 3.372 0 00-4.375-3.47z" fill="#4495d7"/><path d="M89.066 147.649a4.643 4.643 0 01-1.97-.44l-82.853-38.74a4.665 4.665 0 01-2.668-3.839L.016 85.635a4.657 4.657 0 016.445-4.675l82.18 34.522a2.106 2.106 0 001.435.066l95.75-30.122a4.657 4.657 0 016.04 4.792l-1.466 19.503a4.656 4.656 0 01-3.113 4.05l-96.689 33.617a4.658 4.658 0 01-1.532.26zM4.646 83.162a2.098 2.098 0 00-2.068 2.263l1.558 18.995a2.091 2.091 0 001.196 1.721l82.853 38.74a2.074 2.074 0 001.568.08l96.69-33.618a2.087 2.087 0 001.395-1.815l1.466-19.503a2.087 2.087 0 00-2.707-2.148L90.847 118a4.652 4.652 0 01-3.2-.148L5.466 83.33a2.119 2.119 0 00-.82-.168z" fill="#3e4147"/><path d="M107.734 180.775a1.285 1.285 0 01-1.168-1.82l21.176-46.364a1.285 1.285 0 012.338 1.069l-21.176 46.364a1.285 1.285 0 01-1.17.75zM133.965 171.417a1.285 1.285 0 01-1.163-1.828l21.792-46.76a1.285 1.285 0 112.329 1.087l-21.792 46.76a1.284 1.284 0 01-1.166.741zM159.76 161.958a1.286 1.286 0 01-1.18-1.794l19.595-45.369a1.285 1.285 0 012.36 1.02l-19.595 45.368a1.285 1.285 0 01-1.18.775zM78.306 180.775a1.286 1.286 0 01-1.226-.899l-13.977-44.345a1.285 1.285 0 012.451-.774l13.978 44.346a1.285 1.285 0 01-.84 1.612 1.268 1.268 0 01-.386.06zM52.832 168.368a1.285 1.285 0 01-1.218-.878l-14.762-44.216a1.285 1.285 0 012.437-.815l14.762 44.216a1.286 1.286 0 01-1.219 1.693zM28.711 155.968a1.285 1.285 0 01-1.22-.883l-14.116-42.792a1.285 1.285 0 112.44-.804l14.116 42.792a1.284 1.284 0 01-1.22 1.687z" fill="#3e4147"/><path d="M91.252 187.08a1.288 1.288 0 01-.563-.13l-79.488-38.715a1.285 1.285 0 011.125-2.31L91.323 184.4l90.11-33.043a1.285 1.285 0 11.885 2.412l-90.624 33.231a1.28 1.28 0 01-.442.08z" fill="#3e4147"/><path fill="#357fc1" d="M89.464 122.058v19.252"/><path d="M89.464 142.595a1.285 1.285 0 01-1.285-1.285v-19.252a1.285 1.285 0 112.57 0v19.252a1.285 1.285 0 01-1.285 1.285z" fill="#3e4147"/><ellipse cx="144.107" cy="114.212" rx="5.339" ry="3.986" transform="rotate(-69.453 144.107 114.212)" fill="#357fc1"/><path d="M145.132 116.262a2.143 2.143 0 01-1.904-3.119l38.74-75.634a7.817 7.817 0 00-4.865-10.675L101.522 4.626a7.827 7.827 0 00-9.214 3.859L63.054 63.65a2.142 2.142 0 11-3.785-2.007L88.517 6.492a12.1 12.1 0 0114.23-5.97L178.33 22.73a12.097 12.097 0 017.49 16.653l-38.779 75.713a2.142 2.142 0 01-1.908 1.166z" fill="#3e4147"/></g></g></svg>
